<?xml version="1.0" encoding="UTF-8" standalone="no"?>
<svg
   xmlns:dc="http://purl.org/dc/elements/1.1/"
   xmlns:cc="http://creativecommons.org/ns#"
   xmlns:rdf="http://www.w3.org/1999/02/22-rdf-syntax-ns#"
   xmlns:svg="http://www.w3.org/2000/svg"
   xmlns="http://www.w3.org/2000/svg"
   viewBox="0 0 250.25333 57.880001"
   height="57.880001"
   width="250.25333"
   xml:space="preserve"
   id="svg2"
   version="1.1"><metadata
     id="metadata8"><rdf:RDF><cc:Work
         rdf:about=""><dc:format>image/svg+xml</dc:format><dc:type
           rdf:resource="http://purl.org/dc/dcmitype/StillImage" /></cc:Work></rdf:RDF></metadata><defs
     id="defs6" /><g
     transform="matrix(1.3333333,0,0,-1.3333333,0,57.88)"
     id="g10"><g
       transform="scale(0.1)"
       id="g12"><path
         id="path14"
         style="fill:#151414;fill-opacity:1;fill-rule:nonzero;stroke:none"
         d="m 1866.47,375.164 c -2.38,-4.355 -5.96,-7.941 -10.32,-10.336 -8.58,-4.945 -19.15,-4.945 -27.74,0 -4.36,2.395 -7.95,5.981 -10.35,10.336 -4.97,8.621 -4.94,19.238 0.06,27.836 2.42,4.375 6.05,7.957 10.45,10.316 8.51,4.821 18.92,4.821 27.42,0 4.41,-2.351 8.04,-5.937 10.46,-10.316 4.96,-8.609 4.98,-19.203 0.06,-27.836 z m 4.75,30.621 c -2.87,5.254 -7.21,9.555 -12.49,12.375 -10.21,5.75 -22.68,5.75 -32.89,0 -5.29,-2.82 -9.65,-7.117 -12.53,-12.375 -2.93,-5.105 -4.48,-10.887 -4.49,-16.773 0.01,-5.828 1.54,-11.551 4.43,-16.61 2.86,-5.234 7.16,-9.535 12.4,-12.39 10.31,-5.895 22.97,-5.895 33.28,0 5.23,2.855 9.52,7.16 12.36,12.39 5.91,10.348 5.89,23.059 -0.06,33.383 h -0.01" /><path
         id="path16"
         style="fill:#151414;fill-opacity:1;fill-rule:nonzero;stroke:none"
         d="m 1840.46,390.809 h -7.05 v 10.863 h 6.6 c 1.96,0.113 3.94,-0.094 5.84,-0.617 0.98,-0.367 1.83,-1.02 2.44,-1.875 1.49,-2.192 1.08,-5.157 -0.95,-6.856 -2.08,-1.226 -4.48,-1.769 -6.88,-1.543 z m 7.66,-6.102 c -0.89,0.824 -1.93,1.473 -3.06,1.906 2.82,0.114 5.49,1.289 7.48,3.289 1.82,1.821 2.84,4.297 2.81,6.875 -0.01,1.891 -0.59,3.731 -1.68,5.282 -1.09,1.621 -2.67,2.843 -4.52,3.484 -3,0.797 -6.09,1.129 -9.19,0.984 h -12.35 v -35.98 h 5.8 v 15.266 h 3.41 c 1.64,0.117 3.28,-0.321 4.65,-1.239 2.52,-2.398 4.59,-5.23 6.1,-8.363 l 3.2,-5.672 h 7.09 l -4.35,7.031 c -1.53,2.567 -3.34,4.961 -5.39,7.137" /><path
         id="path18"
         style="fill:#151414;fill-opacity:1;fill-rule:evenodd;stroke:none"
         d="m 1721.88,130.203 v 0 292.27 h 76.92 v -292.27 z m -101.84,203.774 v 0 c -1.33,9.718 -3.72,17.066 -6.89,21.531 -3.97,6.039 -9.03,10.504 -15.65,13.133 -8.49,3.672 -17.77,5.25 -28.11,5.25 -17.51,0 -29.97,-2.891 -37.4,-8.399 -7.16,-5.523 -10.88,-11.82 -10.88,-18.91 0,-3.941 0.8,-7.613 2.66,-10.773 1.86,-3.141 5.03,-5.778 9.54,-8.399 4.51,-2.629 13.27,-5.508 25.73,-8.926 l 53.84,-13.129 c 18.03,-4.726 29.44,-7.617 33.95,-9.457 11.14,-3.671 20.69,-7.871 28.11,-13.128 7.43,-4.989 13.53,-10.247 17.77,-16.024 4.51,-6.031 7.95,-12.598 10.34,-20.215 2.4,-7.347 3.72,-15.496 3.72,-24.679 0,-15.758 -2.92,-30.204 -9.02,-43.332 -6.1,-13.129 -14.85,-23.887 -26,-31.778 -11.39,-8.402 -25.45,-14.695 -42.16,-18.902 -16.71,-4.465 -36.34,-6.563 -58.61,-6.563 -23.08,0 -42.97,2.36 -59.94,7.348 -17.24,4.727 -31.03,11.82 -41.64,20.746 -10.6,9.195 -18.3,19.434 -23.6,30.727 -5.31,11.289 -9.02,25.734 -11.15,43.324 h 79.84 c 0,-9.445 1.58,-16.805 4.77,-22.317 4.24,-7.878 10.88,-13.39 19.89,-17.328 8.75,-3.679 20.16,-5.515 33.69,-5.515 20.15,0 34.73,3.148 44.02,9.976 6.63,4.989 9.82,11.555 9.82,19.692 0,6.304 -2.4,11.554 -7.43,16.023 -4.78,4.727 -17.25,9.188 -37.14,13.91 -44.02,9.981 -72.14,17.332 -84.86,22.586 -17.77,7.094 -31.04,16.547 -39.52,28.887 -8.75,12.078 -13,27.047 -13,44.641 0,17.863 4.77,34.402 14.07,49.632 9.53,15.231 23.6,26.782 42.42,34.922 18.57,8.399 41.91,12.606 69.49,12.606 15.91,0 31.03,-1.578 45.36,-4.727 14.31,-3.156 26.51,-7.879 36.07,-13.918 9.8,-6.043 17.76,-13.129 23.86,-21.012 6.11,-7.871 10.88,-16.273 13.79,-24.417 2.92,-8.403 5.31,-19.43 6.9,-33.086 z m -283.52,0 v 0 h 76.65 c -1.59,13.656 -3.71,24.683 -6.89,33.086 -2.92,8.144 -7.43,16.546 -13.79,24.417 -6.11,7.883 -14.07,14.969 -23.88,21.012 -9.54,6.039 -21.48,10.762 -36.06,13.918 -14.33,3.149 -29.45,4.727 -45.35,4.727 -27.59,0 -50.66,-4.207 -69.49,-12.606 -18.84,-8.14 -32.89,-19.691 -42.43,-34.922 -9.29,-15.23 -14.07,-31.769 -14.07,-49.632 0,-17.594 4.25,-32.563 13,-44.641 8.75,-12.34 21.75,-21.793 39.52,-28.887 12.73,-5.254 40.84,-12.605 84.86,-22.586 19.9,-4.722 32.36,-9.183 37.41,-13.91 4.77,-4.469 7.42,-9.719 7.42,-16.023 0,-8.137 -3.45,-14.703 -10.08,-19.692 -9.28,-6.828 -23.87,-9.976 -44.02,-9.976 -13.53,0 -24.67,1.836 -33.69,5.515 -9.02,3.938 -15.65,9.45 -19.89,17.328 -3.19,5.512 -4.77,12.872 -4.77,22.317 h -79.83 c 2.12,-17.59 5.83,-32.035 11.14,-43.324 5.3,-11.293 13,-21.532 23.6,-30.727 10.61,-8.926 24.4,-16.019 41.64,-20.746 16.98,-4.988 37.13,-7.348 59.94,-7.348 22.54,0 41.9,2.098 58.61,6.563 16.97,4.207 30.77,10.5 42.17,18.902 11.14,7.891 19.89,18.649 25.99,31.778 6.1,13.128 9.02,27.574 9.02,43.332 0,9.183 -1.33,17.332 -3.72,24.679 -2.38,7.617 -5.83,14.184 -10.07,20.215 -4.51,5.777 -10.61,11.035 -18.04,16.024 -7.42,5.257 -16.97,9.457 -28.11,13.128 -4.51,1.84 -15.65,4.731 -33.68,9.457 l -54.11,13.129 c -12.46,3.418 -20.95,6.297 -25.72,8.926 -4.51,2.621 -7.69,5.258 -9.55,8.399 -1.59,3.16 -2.65,6.832 -2.65,10.773 0,7.09 3.71,13.387 10.87,18.91 7.43,5.508 19.9,8.399 37.4,8.399 10.34,0 19.62,-1.578 28.11,-5.25 6.63,-2.629 11.94,-7.094 15.92,-13.133 2.91,-4.465 5.3,-11.813 6.62,-21.531 m -277.41,-61.184 v 0 c -6.9,-3.676 -13.27,-6.305 -19.36,-8.402 -6.37,-1.84 -14.59,-3.942 -25.2,-6.305 -19.89,-3.676 -32.355,-6.563 -37.402,-8.395 -8.21,-3.418 -14.578,-8.144 -18.558,-14.187 -4.242,-5.774 -6.363,-12.867 -6.363,-21.527 0,-11.829 3.711,-21.012 10.871,-28.364 7.16,-7.093 16.715,-10.769 28.113,-10.769 16.979,0 32.619,5.511 46.679,16.543 14.06,10.761 21.22,28.097 21.22,51.73 z m -98.399,56.457 v 0 H 884.59 c 1.598,29.934 13.531,54.359 35.285,73.262 22.008,19.176 55.426,28.625 100.505,28.625 19.63,0 37.4,-2.102 53.31,-6.047 15.92,-4.199 27.58,-9.184 35.54,-15.754 7.7,-6.297 13.79,-14.441 17.77,-24.16 5.84,-12.863 8.75,-28.879 8.75,-48.051 l -0.26,-149.41 c 0,-17.598 1.6,-28.891 4.51,-34.406 3.18,-5.508 7.69,-9.454 13.26,-11.032 v -12.074 h -84.61 c -4.77,11.035 -7.16,22.063 -7.42,33.875 -15.65,-16.277 -30.24,-27.305 -44.02,-33.609 -13.54,-6.035 -29.71,-9.192 -48.542,-9.192 -19.098,0 -36.07,3.676 -50.395,11.028 -14.054,7.355 -24.66,17.859 -31.562,31.773 -7.156,13.914 -10.606,28.887 -10.606,44.906 0,24.418 6.364,44.907 19.36,61.176 12.73,16.555 36.332,27.317 71.082,32.57 l 65.243,9.708 c 10.34,1.32 17.51,3.945 21.48,7.886 3.72,3.938 5.84,9.188 5.84,15.754 0,10.504 -3.72,18.641 -10.88,24.688 -6.9,5.777 -19.1,8.66 -35.8,8.66 -17.235,0 -29.707,-2.883 -36.864,-8.66 -7.429,-6.047 -12.468,-16.286 -14.855,-31.516 M 781.422,130.203 v 0 292.27 h 77.18 v -292.27 z m -166.555,63.543 v 0 c 19.098,0 34.742,6.836 46.946,20.75 12.191,13.922 18.296,35.195 18.296,64.074 0,29.41 -6.363,51.461 -18.562,65.91 -12.469,14.446 -28.117,21.532 -47.211,21.532 -18.301,0 -33.68,-7.086 -45.617,-21.274 -12.199,-14.437 -18.297,-36.5 -18.297,-66.168 0,-28.879 5.832,-50.152 18.027,-64.074 11.938,-13.914 27.324,-20.75 46.418,-20.75 m 65.242,228.727 H 756.23 V 145.438 c 0,-26.786 -2.66,-48.0552 -7.957,-63.5435 -5.308,-15.5 -14.589,-28.6328 -27.32,-39.3984 -12.988,-11.0234 -28.379,-19.168 -46.144,-24.4102 -18.036,-5.2578 -38.723,-7.8867 -62.86,-7.8867 -43.761,0 -76.64,7.6172 -98.922,22.8477 -22.285,15.4922 -34.218,37.0195 -35.808,65.1172 h 84.605 c 1.063,-8.3985 5.301,-15.2266 12.199,-19.9493 9.282,-6.5703 22.278,-9.7187 38.985,-9.7187 23.34,0 40.316,6.0352 51.187,17.8555 10.875,12.0781 16.184,34.6604 16.184,67.7534 0,4.204 -0.27,11.024 -0.27,20.215 -9.808,-15.754 -20.156,-26.519 -31.031,-32.554 -14.59,-8.414 -32.621,-12.871 -54.101,-12.871 -23.336,0 -44.555,5.777 -63.914,17.062 -19.368,11.293 -34.477,28.363 -44.825,50.949 -10.613,22.578 -15.918,48.84 -15.918,78.778 0,26.785 3.985,50.418 11.676,71.156 7.957,20.484 17.762,37.027 29.699,49.371 12.2,12.336 24.93,21.269 38.461,26.781 13.528,5.258 28.907,8.145 46.145,8.145 18.304,0 34.215,-4.207 48,-12.078 13.801,-7.879 25.73,-20.746 35.808,-38.606 v 42.02" /><path
         id="path20"
         style="fill:#f35f20;fill-opacity:1;fill-rule:evenodd;stroke:none"
         d="m 323.922,433.23 c 55.691,0 101.043,-44.894 101.043,-100.308 0,-55.141 -45.352,-100.047 -101.043,-100.047 -55.703,0 -101.051,44.906 -101.051,100.047 0,55.414 45.348,100.308 101.051,100.308" /><path
         id="path22"
         style="fill:#151414;fill-opacity:1;fill-rule:evenodd;stroke:none"
         d="M 301.375,31.9922 213.063,223.684 h 211.902 l 0.539,-0.524 c 0,-84.027 -51.191,-158.078 -124.129,-191.1678" /><path
         id="path24"
         style="fill:#151414;fill-opacity:1;fill-rule:evenodd;stroke:none"
         d="M 213.594,223.684 V 12.8281 c 0,-0.5234 -0.535,0 -0.535,0 -116.6996,0 -211.91056,95.0589 -211.91056,210.3319 0,115.543 95.21096,210.074 211.91056,210.074 l 0.535,-0.527 V 223.684" /><path
         id="path26"
         style="fill:#151414;fill-opacity:1;fill-rule:nonzero;stroke:none"
         d="M 1313.97,9.49609 H 977.727 c -8.852,0 -16.028,2.28521 -16.028,5.10941 0,2.8203 7.176,5.1054 16.028,5.1054 h 336.243 c 8.85,0 16.02,-2.2851 16.02,-5.1054 0,-2.8242 -7.17,-5.10941 -16.02,-5.10941" /><path
         id="path28"
         style="fill:#151414;fill-opacity:1;fill-rule:nonzero;stroke:none"
         d="m 1323.74,46.5352 h -249.21 c -9.16,0 -16.59,2.289 -16.59,5.1093 0,2.8203 7.43,5.1094 16.59,5.1094 h 249.21 c 9.16,0 16.59,-2.2891 16.59,-5.1094 0,-2.8203 -7.43,-5.1093 -16.59,-5.1093" /><path
         id="path30"
         style="fill:#151414;fill-opacity:1;fill-rule:nonzero;stroke:none"
         d="m 1335.72,82.6914 h -196.81 c -7.23,0 -13.1,2.2891 -13.1,5.1094 0,2.8203 5.87,5.1055 13.1,5.1055 h 196.81 c 7.23,0 13.1,-2.2852 13.1,-5.1055 0,-2.8203 -5.87,-5.1094 -13.1,-5.1094" /><path
         id="path32"
         style="fill:#151414;fill-opacity:1;fill-rule:nonzero;stroke:none"
         d="m 1375.91,52.1953 c -1.84,-11.0273 -1.14,-19.332 2.12,-24.9101 3.25,-5.5821 9.04,-8.375 17.37,-8.375 16.69,0 26.89,11.0937 30.6,33.2851 3.71,22.2344 -2.74,33.3555 -19.35,33.3555 -8.32,0 -15.07,-2.8047 -20.23,-8.4063 -5.17,-5.6054 -8.67,-13.9218 -10.51,-24.9492 m 72.02,-0.0273 c -2.72,-16.3399 -8.87,-28.8907 -18.43,-37.6641 -9.57,-8.77734 -21.91,-13.16406 -37.04,-13.16406 -15.12,0 -26,4.38672 -32.63,13.16406 -6.64,8.7734 -8.59,21.375 -5.84,37.7969 2.74,16.4258 8.89,28.9687 18.46,37.6367 9.57,8.6602 21.94,12.9925 37.11,12.9925 15.16,0 26.03,-4.3675 32.61,-13.098 6.57,-8.7304 8.5,-21.2851 5.76,-37.664" /><path
         id="path34"
         style="fill:#151414;fill-opacity:1;fill-rule:nonzero;stroke:none"
         d="m 1528.15,2.68359 h -20.58 l 7.35,44.06251 c 0.91,5.4453 0.62,9.5273 -0.86,12.2539 -1.48,2.7188 -4.33,4.0781 -8.55,4.0781 -5.76,0 -10.23,-1.9258 -13.44,-5.7695 -3.21,-3.8477 -5.55,-10.2266 -7.04,-19.1328 l -5.92,-35.49221 h -20.59 l 12.6,75.46871 h 15.73 l 1.16,-9.6601 h 1.14 c 2.91,3.6562 6.53,6.4219 10.86,8.2891 4.34,1.875 9.08,2.8125 14.2,2.8125 8.77,0 15.03,-2.375 18.78,-7.125 3.75,-4.75 4.88,-11.6016 3.38,-20.5625 l -8.22,-49.22271" /><path
         id="path36"
         style="fill:#151414;fill-opacity:1;fill-rule:nonzero;stroke:none"
         d="m 1569.98,2.68359 h -20.59 L 1566.93,107.73 h 20.59 L 1569.98,2.68359" /><path
         id="path38"
         style="fill:#151414;fill-opacity:1;fill-rule:nonzero;stroke:none"
         d="m 1612.18,2.68359 h -20.59 l 12.6,75.46871 h 20.59 z m -5.61,94.99611 c 1.12,6.6953 5.41,10.0503 12.88,10.0503 7.48,0 10.65,-3.355 9.54,-10.0503 -0.54,-3.1953 -1.89,-5.6758 -4.05,-7.4531 -2.16,-1.7774 -5.12,-2.6602 -8.85,-2.6602 -7.47,0 -10.65,3.3672 -9.52,10.1133" /><path
         id="path40"
         style="fill:#151414;fill-opacity:1;fill-rule:nonzero;stroke:none"
         d="m 1703.42,2.68359 h -20.59 l 7.36,44.06251 c 0.9,5.4453 0.62,9.5273 -0.86,12.2539 -1.48,2.7188 -4.33,4.0781 -8.55,4.0781 -5.75,0 -10.23,-1.9258 -13.44,-5.7695 -3.2,-3.8477 -5.55,-10.2266 -7.03,-19.1328 l -5.93,-35.49221 h -20.59 l 12.59,75.46871 h 15.74 l 1.15,-9.6601 h 1.15 c 2.9,3.6562 6.52,6.4219 10.86,8.2891 4.34,1.875 9.07,2.8125 14.2,2.8125 8.77,0 15.03,-2.375 18.78,-7.125 3.75,-4.75 4.88,-11.6016 3.38,-20.5625 l -8.22,-49.22271" /><path
         id="path42"
         style="fill:#151414;fill-opacity:1;fill-rule:nonzero;stroke:none"
         d="m 1766.32,64.9023 c -4.37,0 -8.03,-1.3828 -10.96,-4.1523 -2.95,-2.7695 -5.02,-6.6992 -6.23,-11.7852 h 28.91 c 0.77,5.086 0.09,9.0157 -2.01,11.7852 -2.11,2.7695 -5.34,4.1523 -9.71,4.1523 m -7.71,-63.56246 c -12.16,0 -21.1,3.35157 -26.82,10.05856 -5.72,6.7032 -7.56,16.2071 -5.51,28.4922 2.11,12.6485 6.91,22.4297 14.39,29.3399 7.47,6.9101 16.8,10.3633 27.97,10.3633 10.67,0 18.46,-3.043 23.39,-9.129 4.93,-6.082 6.49,-14.4921 4.71,-25.2226 l -1.68,-10.0078 h -48.7 c -0.74,-5.8203 0.24,-10.3633 2.93,-13.6289 2.7,-3.2696 6.97,-4.9024 12.83,-4.9024 4.55,0 8.92,0.4688 13.14,1.4102 4.2,0.9375 8.69,2.4375 13.44,4.4961 l -2.66,-15.93362 c -3.9,-1.80469 -7.97,-3.14453 -12.21,-4.02344 -4.25,-0.875 -9.32,-1.3125 -15.22,-1.3125" /></g></g></svg>